<svg width="12" height="12" viewBox="0 0 12 12" fill="none" xmlns="http://www.w3.org/2000/svg">
<g clip-path="url(#clip0_1446_49887)">
<path d="M6 11.5C9.03757 11.5 11.5 9.03757 11.5 6C11.5 2.96243 9.03757 0.5 6 0.5C2.96243 0.5 0.5 2.96243 0.5 6C0.5 9.03757 2.96243 11.5 6 11.5Z" stroke="#1A2B6B"/>
<path d="M6.50005 8.99998V5.09998H5.50005V8.99998H6.50005ZM5.30005 3.79998C5.30005 4.19998 5.60005 4.39998 6.00005 4.39998C6.40005 4.39998 6.70005 4.09998 6.70005 3.79998C6.70005 3.39998 6.40005 3.09998 6.00005 3.09998C5.60005 3.09998 5.30005 3.39998 5.30005 3.79998Z" fill="#1A2B6B"/>
</g>
<defs>
<clipPath id="clip0_1446_49887">
<rect width="12" height="12" fill="white"/>
</clipPath>
</defs>
</svg>
